<?xml version="1.0" encoding="utf-8" standalone="no"?>
<!DOCTYPE svg PUBLIC "-//W3C//DTD SVG 1.1//EN"
  "http://www.w3.org/Graphics/SVG/1.1/DTD/svg11.dtd">
<!-- Created with matplotlib (https://matplotlib.org/) -->
<svg height="345.6pt" version="1.1" viewBox="0 0 460.8 345.6" width="460.8pt" xmlns="http://www.w3.org/2000/svg" xmlns:xlink="http://www.w3.org/1999/xlink">
 <defs>
  <style type="text/css">
*{stroke-linecap:butt;stroke-linejoin:round;}
  </style>
 </defs>
 <g id="figure_1">
  <g id="patch_1">
   <path d="M 0 345.6 
L 460.8 345.6 
L 460.8 0 
L 0 0 
z
" style="fill:none;"/>
  </g>
  <g id="axes_1">
   <g id="patch_2">
    <path d="M 57.6 307.584 
L 414.72 307.584 
L 414.72 41.472 
L 57.6 41.472 
z
" style="fill:none;"/>
   </g>
   <g id="patch_3">
    <path clip-path="url(#p02c7f32532)" d="M 66.88512 190.726883 
L 101.88288 190.726883 
L 101.88288 156.233895 
L 66.88512 156.233895 
L 66.88512 190.726883 
z
" style="fill:#3274a1;opacity:0.3;stroke:#3274a1;stroke-linejoin:miter;stroke-width:1.5;"/>
   </g>
   <g id="patch_4">
    <path clip-path="url(#p02c7f32532)" d="M 102.59712 202.70405 
L 137.59488 202.70405 
L 137.59488 190.414163 
L 102.59712 190.414163 
L 102.59712 202.70405 
z
" style="fill:#e1812c;opacity:0.3;stroke:#e1812c;stroke-linejoin:miter;stroke-width:1.5;"/>
   </g>
   <g id="patch_5">
    <path clip-path="url(#p02c7f32532)" d="M 156.16512 124.617928 
L 191.16288 124.617928 
L 191.16288 113.360017 
L 156.16512 113.360017 
L 156.16512 124.617928 
z
" style="fill:#3274a1;opacity:0.3;stroke:#3274a1;stroke-linejoin:miter;stroke-width:1.5;"/>
   </g>
   <g id="patch_6">
    <path clip-path="url(#p02c7f32532)" d="M 191.87712 198.701237 
L 226.87488 198.701237 
L 226.87488 161.143595 
L 191.87712 161.143595 
L 191.87712 198.701237 
z
" style="fill:#e1812c;opacity:0.3;stroke:#e1812c;stroke-linejoin:miter;stroke-width:1.5;"/>
   </g>
   <g id="patch_7">
    <path clip-path="url(#p02c7f32532)" d="M 245.44512 79.21102 
L 280.44288 79.21102 
L 280.44288 75.583471 
L 245.44512 75.583471 
L 245.44512 79.21102 
z
" style="fill:#3274a1;opacity:0.3;stroke:#3274a1;stroke-linejoin:miter;stroke-width:1.5;"/>
   </g>
   <g id="patch_8">
    <path clip-path="url(#p02c7f32532)" d="M 281.15712 197.16891 
L 316.15488 197.16891 
L 316.15488 130.309427 
L 281.15712 130.309427 
L 281.15712 197.16891 
z
" style="fill:#e1812c;opacity:0.3;stroke:#e1812c;stroke-linejoin:miter;stroke-width:1.5;"/>
   </g>
   <g id="patch_9">
    <path clip-path="url(#p02c7f32532)" d="M 334.72512 58.571516 
L 369.72288 58.571516 
L 369.72288 56.820285 
L 334.72512 56.820285 
L 334.72512 58.571516 
z
" style="fill:#3274a1;opacity:0.3;stroke:#3274a1;stroke-linejoin:miter;stroke-width:1.5;"/>
   </g>
   <g id="patch_10">
    <path clip-path="url(#p02c7f32532)" d="M 370.43712 196.918734 
L 405.43488 196.918734 
L 405.43488 80.96225 
L 370.43712 80.96225 
L 370.43712 196.918734 
z
" style="fill:#e1812c;opacity:0.3;stroke:#e1812c;stroke-linejoin:miter;stroke-width:1.5;"/>
   </g>
   <g id="patch_11">
    <path clip-path="url(#p02c7f32532)" d="M 102.24 545.288538 
L 102.24 545.288538 
L 102.24 545.288538 
L 102.24 545.288538 
z
" style="fill:#3274a1;stroke:#3f3f3f;stroke-linejoin:miter;stroke-width:0.75;"/>
   </g>
   <g id="patch_12">
    <path clip-path="url(#p02c7f32532)" d="M 102.24 545.288538 
L 102.24 545.288538 
L 102.24 545.288538 
L 102.24 545.288538 
z
" style="fill:#e1812c;stroke:#3f3f3f;stroke-linejoin:miter;stroke-width:0.75;"/>
   </g>
   <g id="matplotlib.axis_1">
    <g id="xtick_1">
     <g id="line2d_1">
      <defs>
       <path d="M 0 0 
L 0 3.5 
" id="md28b05ce3a" style="stroke:#000000;stroke-width:0.8;"/>
      </defs>
      <g>
       <use style="stroke:#000000;stroke-width:0.8;" x="102.24" xlink:href="#md28b05ce3a" y="307.584"/>
      </g>
     </g>
     <g id="text_1">
      <!-- 16 -->
      <defs>
       <path d="M 12.40625 8.296875 
L 28.515625 8.296875 
L 28.515625 63.921875 
L 10.984375 60.40625 
L 10.984375 69.390625 
L 28.421875 72.90625 
L 38.28125 72.90625 
L 38.28125 8.296875 
L 54.390625 8.296875 
L 54.390625 0 
L 12.40625 0 
z
" id="DejaVuSans-49"/>
       <path d="M 33.015625 40.375 
Q 26.375 40.375 22.484375 35.828125 
Q 18.609375 31.296875 18.609375 23.390625 
Q 18.609375 15.53125 22.484375 10.953125 
Q 26.375 6.390625 33.015625 6.390625 
Q 39.65625 6.390625 43.53125 10.953125 
Q 47.40625 15.53125 47.40625 23.390625 
Q 47.40625 31.296875 43.53125 35.828125 
Q 39.65625 40.375 33.015625 40.375 
z
M 52.59375 71.296875 
L 52.59375 62.3125 
Q 48.875 64.0625 45.09375 64.984375 
Q 41.3125 65.921875 37.59375 65.921875 
Q 27.828125 65.921875 22.671875 59.328125 
Q 17.53125 52.734375 16.796875 39.40625 
Q 19.671875 43.65625 24.015625 45.921875 
Q 28.375 48.1875 33.59375 48.1875 
Q 44.578125 48.1875 50.953125 41.515625 
Q 57.328125 34.859375 57.328125 23.390625 
Q 57.328125 12.15625 50.6875 5.359375 
Q 44.046875 -1.421875 33.015625 -1.421875 
Q 20.359375 -1.421875 13.671875 8.265625 
Q 6.984375 17.96875 6.984375 36.375 
Q 6.984375 53.65625 15.1875 63.9375 
Q 23.390625 74.21875 37.203125 74.21875 
Q 40.921875 74.21875 44.703125 73.484375 
Q 48.484375 72.75 52.59375 71.296875 
z
" id="DejaVuSans-54"/>
      </defs>
      <g transform="translate(95.8775 322.182437)scale(0.1 -0.1)">
       <use xlink:href="#DejaVuSans-49"/>
       <use x="63.623047" xlink:href="#DejaVuSans-54"/>
      </g>
     </g>
    </g>
    <g id="xtick_2">
     <g id="line2d_2">
      <g>
       <use style="stroke:#000000;stroke-width:0.8;" x="191.52" xlink:href="#md28b05ce3a" y="307.584"/>
      </g>
     </g>
     <g id="text_2">
      <!-- 32 -->
      <defs>
       <path d="M 40.578125 39.3125 
Q 47.65625 37.796875 51.625 33 
Q 55.609375 28.21875 55.609375 21.1875 
Q 55.609375 10.40625 48.1875 4.484375 
Q 40.765625 -1.421875 27.09375 -1.421875 
Q 22.515625 -1.421875 17.65625 -0.515625 
Q 12.796875 0.390625 7.625 2.203125 
L 7.625 11.71875 
Q 11.71875 9.328125 16.59375 8.109375 
Q 21.484375 6.890625 26.8125 6.890625 
Q 36.078125 6.890625 40.9375 10.546875 
Q 45.796875 14.203125 45.796875 21.1875 
Q 45.796875 27.640625 41.28125 31.265625 
Q 36.765625 34.90625 28.71875 34.90625 
L 20.21875 34.90625 
L 20.21875 43.015625 
L 29.109375 43.015625 
Q 36.375 43.015625 40.234375 45.921875 
Q 44.09375 48.828125 44.09375 54.296875 
Q 44.09375 59.90625 40.109375 62.90625 
Q 36.140625 65.921875 28.71875 65.921875 
Q 24.65625 65.921875 20.015625 65.03125 
Q 15.375 64.15625 9.8125 62.3125 
L 9.8125 71.09375 
Q 15.4375 72.65625 20.34375 73.4375 
Q 25.25 74.21875 29.59375 74.21875 
Q 40.828125 74.21875 47.359375 69.109375 
Q 53.90625 64.015625 53.90625 55.328125 
Q 53.90625 49.265625 50.4375 45.09375 
Q 46.96875 40.921875 40.578125 39.3125 
z
" id="DejaVuSans-51"/>
       <path d="M 19.1875 8.296875 
L 53.609375 8.296875 
L 53.609375 0 
L 7.328125 0 
L 7.328125 8.296875 
Q 12.9375 14.109375 22.625 23.890625 
Q 32.328125 33.6875 34.8125 36.53125 
Q 39.546875 41.84375 41.421875 45.53125 
Q 43.3125 49.21875 43.3125 52.78125 
Q 43.3125 58.59375 39.234375 62.25 
Q 35.15625 65.921875 28.609375 65.921875 
Q 23.96875 65.921875 18.8125 64.3125 
Q 13.671875 62.703125 7.8125 59.421875 
L 7.8125 69.390625 
Q 13.765625 71.78125 18.9375 73 
Q 24.125 74.21875 28.421875 74.21875 
Q 39.75 74.21875 46.484375 68.546875 
Q 53.21875 62.890625 53.21875 53.421875 
Q 53.21875 48.921875 51.53125 44.890625 
Q 49.859375 40.875 45.40625 35.40625 
Q 44.1875 33.984375 37.640625 27.21875 
Q 31.109375 20.453125 19.1875 8.296875 
z
" id="DejaVuSans-50"/>
      </defs>
      <g transform="translate(185.1575 322.182437)scale(0.1 -0.1)">
       <use xlink:href="#DejaVuSans-51"/>
       <use x="63.623047" xlink:href="#DejaVuSans-50"/>
      </g>
     </g>
    </g>
    <g id="xtick_3">
     <g id="line2d_3">
      <g>
       <use style="stroke:#000000;stroke-width:0.8;" x="280.8" xlink:href="#md28b05ce3a" y="307.584"/>
      </g>
     </g>
     <g id="text_3">
      <!-- 64 -->
      <defs>
       <path d="M 37.796875 64.3125 
L 12.890625 25.390625 
L 37.796875 25.390625 
z
M 35.203125 72.90625 
L 47.609375 72.90625 
L 47.609375 25.390625 
L 58.015625 25.390625 
L 58.015625 17.1875 
L 47.609375 17.1875 
L 47.609375 0 
L 37.796875 0 
L 37.796875 17.1875 
L 4.890625 17.1875 
L 4.890625 26.703125 
z
" id="DejaVuSans-52"/>
      </defs>
      <g transform="translate(274.4375 322.182437)scale(0.1 -0.1)">
       <use xlink:href="#DejaVuSans-54"/>
       <use x="63.623047" xlink:href="#DejaVuSans-52"/>
      </g>
     </g>
    </g>
    <g id="xtick_4">
     <g id="line2d_4">
      <g>
       <use style="stroke:#000000;stroke-width:0.8;" x="370.08" xlink:href="#md28b05ce3a" y="307.584"/>
      </g>
     </g>
     <g id="text_4">
      <!-- 128 -->
      <defs>
       <path d="M 31.78125 34.625 
Q 24.75 34.625 20.71875 30.859375 
Q 16.703125 27.09375 16.703125 20.515625 
Q 16.703125 13.921875 20.71875 10.15625 
Q 24.75 6.390625 31.78125 6.390625 
Q 38.8125 6.390625 42.859375 10.171875 
Q 46.921875 13.96875 46.921875 20.515625 
Q 46.921875 27.09375 42.890625 30.859375 
Q 38.875 34.625 31.78125 34.625 
z
M 21.921875 38.8125 
Q 15.578125 40.375 12.03125 44.71875 
Q 8.5 49.078125 8.5 55.328125 
Q 8.5 64.0625 14.71875 69.140625 
Q 20.953125 74.21875 31.78125 74.21875 
Q 42.671875 74.21875 48.875 69.140625 
Q 55.078125 64.0625 55.078125 55.328125 
Q 55.078125 49.078125 51.53125 44.71875 
Q 48 40.375 41.703125 38.8125 
Q 48.828125 37.15625 52.796875 32.3125 
Q 56.78125 27.484375 56.78125 20.515625 
Q 56.78125 9.90625 50.3125 4.234375 
Q 43.84375 -1.421875 31.78125 -1.421875 
Q 19.734375 -1.421875 13.25 4.234375 
Q 6.78125 9.90625 6.78125 20.515625 
Q 6.78125 27.484375 10.78125 32.3125 
Q 14.796875 37.15625 21.921875 38.8125 
z
M 18.3125 54.390625 
Q 18.3125 48.734375 21.84375 45.5625 
Q 25.390625 42.390625 31.78125 42.390625 
Q 38.140625 42.390625 41.71875 45.5625 
Q 45.3125 48.734375 45.3125 54.390625 
Q 45.3125 60.0625 41.71875 63.234375 
Q 38.140625 66.40625 31.78125 66.40625 
Q 25.390625 66.40625 21.84375 63.234375 
Q 18.3125 60.0625 18.3125 54.390625 
z
" id="DejaVuSans-56"/>
      </defs>
      <g transform="translate(360.53625 322.182437)scale(0.1 -0.1)">
       <use xlink:href="#DejaVuSans-49"/>
       <use x="63.623047" xlink:href="#DejaVuSans-50"/>
       <use x="127.246094" xlink:href="#DejaVuSans-56"/>
      </g>
     </g>
    </g>
    <g id="text_5">
     <!-- hidden layer size -->
     <defs>
      <path d="M 54.890625 33.015625 
L 54.890625 0 
L 45.90625 0 
L 45.90625 32.71875 
Q 45.90625 40.484375 42.875 44.328125 
Q 39.84375 48.1875 33.796875 48.1875 
Q 26.515625 48.1875 22.3125 43.546875 
Q 18.109375 38.921875 18.109375 30.90625 
L 18.109375 0 
L 9.078125 0 
L 9.078125 75.984375 
L 18.109375 75.984375 
L 18.109375 46.1875 
Q 21.34375 51.125 25.703125 53.5625 
Q 30.078125 56 35.796875 56 
Q 45.21875 56 50.046875 50.171875 
Q 54.890625 44.34375 54.890625 33.015625 
z
" id="DejaVuSans-104"/>
      <path d="M 9.421875 54.6875 
L 18.40625 54.6875 
L 18.40625 0 
L 9.421875 0 
z
M 9.421875 75.984375 
L 18.40625 75.984375 
L 18.40625 64.59375 
L 9.421875 64.59375 
z
" id="DejaVuSans-105"/>
      <path d="M 45.40625 46.390625 
L 45.40625 75.984375 
L 54.390625 75.984375 
L 54.390625 0 
L 45.40625 0 
L 45.40625 8.203125 
Q 42.578125 3.328125 38.25 0.953125 
Q 33.9375 -1.421875 27.875 -1.421875 
Q 17.96875 -1.421875 11.734375 6.484375 
Q 5.515625 14.40625 5.515625 27.296875 
Q 5.515625 40.1875 11.734375 48.09375 
Q 17.96875 56 27.875 56 
Q 33.9375 56 38.25 53.625 
Q 42.578125 51.265625 45.40625 46.390625 
z
M 14.796875 27.296875 
Q 14.796875 17.390625 18.875 11.75 
Q 22.953125 6.109375 30.078125 6.109375 
Q 37.203125 6.109375 41.296875 11.75 
Q 45.40625 17.390625 45.40625 27.296875 
Q 45.40625 37.203125 41.296875 42.84375 
Q 37.203125 48.484375 30.078125 48.484375 
Q 22.953125 48.484375 18.875 42.84375 
Q 14.796875 37.203125 14.796875 27.296875 
z
" id="DejaVuSans-100"/>
      <path d="M 56.203125 29.59375 
L 56.203125 25.203125 
L 14.890625 25.203125 
Q 15.484375 15.921875 20.484375 11.0625 
Q 25.484375 6.203125 34.421875 6.203125 
Q 39.59375 6.203125 44.453125 7.46875 
Q 49.3125 8.734375 54.109375 11.28125 
L 54.109375 2.78125 
Q 49.265625 0.734375 44.1875 -0.34375 
Q 39.109375 -1.421875 33.890625 -1.421875 
Q 20.796875 -1.421875 13.15625 6.1875 
Q 5.515625 13.8125 5.515625 26.8125 
Q 5.515625 40.234375 12.765625 48.109375 
Q 20.015625 56 32.328125 56 
Q 43.359375 56 49.78125 48.890625 
Q 56.203125 41.796875 56.203125 29.59375 
z
M 47.21875 32.234375 
Q 47.125 39.59375 43.09375 43.984375 
Q 39.0625 48.390625 32.421875 48.390625 
Q 24.90625 48.390625 20.390625 44.140625 
Q 15.875 39.890625 15.1875 32.171875 
z
" id="DejaVuSans-101"/>
      <path d="M 54.890625 33.015625 
L 54.890625 0 
L 45.90625 0 
L 45.90625 32.71875 
Q 45.90625 40.484375 42.875 44.328125 
Q 39.84375 48.1875 33.796875 48.1875 
Q 26.515625 48.1875 22.3125 43.546875 
Q 18.109375 38.921875 18.109375 30.90625 
L 18.109375 0 
L 9.078125 0 
L 9.078125 54.6875 
L 18.109375 54.6875 
L 18.109375 46.1875 
Q 21.34375 51.125 25.703125 53.5625 
Q 30.078125 56 35.796875 56 
Q 45.21875 56 50.046875 50.171875 
Q 54.890625 44.34375 54.890625 33.015625 
z
" id="DejaVuSans-110"/>
      <path id="DejaVuSans-32"/>
      <path d="M 9.421875 75.984375 
L 18.40625 75.984375 
L 18.40625 0 
L 9.421875 0 
z
" id="DejaVuSans-108"/>
      <path d="M 34.28125 27.484375 
Q 23.390625 27.484375 19.1875 25 
Q 14.984375 22.515625 14.984375 16.5 
Q 14.984375 11.71875 18.140625 8.90625 
Q 21.296875 6.109375 26.703125 6.109375 
Q 34.1875 6.109375 38.703125 11.40625 
Q 43.21875 16.703125 43.21875 25.484375 
L 43.21875 27.484375 
z
M 52.203125 31.203125 
L 52.203125 0 
L 43.21875 0 
L 43.21875 8.296875 
Q 40.140625 3.328125 35.546875 0.953125 
Q 30.953125 -1.421875 24.3125 -1.421875 
Q 15.921875 -1.421875 10.953125 3.296875 
Q 6 8.015625 6 15.921875 
Q 6 25.140625 12.171875 29.828125 
Q 18.359375 34.515625 30.609375 34.515625 
L 43.21875 34.515625 
L 43.21875 35.40625 
Q 43.21875 41.609375 39.140625 45 
Q 35.0625 48.390625 27.6875 48.390625 
Q 23 48.390625 18.546875 47.265625 
Q 14.109375 46.140625 10.015625 43.890625 
L 10.015625 52.203125 
Q 14.9375 54.109375 19.578125 55.046875 
Q 24.21875 56 28.609375 56 
Q 40.484375 56 46.34375 49.84375 
Q 52.203125 43.703125 52.203125 31.203125 
z
" id="DejaVuSans-97"/>
      <path d="M 32.171875 -5.078125 
Q 28.375 -14.84375 24.75 -17.8125 
Q 21.140625 -20.796875 15.09375 -20.796875 
L 7.90625 -20.796875 
L 7.90625 -13.28125 
L 13.1875 -13.28125 
Q 16.890625 -13.28125 18.9375 -11.515625 
Q 21 -9.765625 23.484375 -3.21875 
L 25.09375 0.875 
L 2.984375 54.6875 
L 12.5 54.6875 
L 29.59375 11.921875 
L 46.6875 54.6875 
L 56.203125 54.6875 
z
" id="DejaVuSans-121"/>
      <path d="M 41.109375 46.296875 
Q 39.59375 47.171875 37.8125 47.578125 
Q 36.03125 48 33.890625 48 
Q 26.265625 48 22.1875 43.046875 
Q 18.109375 38.09375 18.109375 28.8125 
L 18.109375 0 
L 9.078125 0 
L 9.078125 54.6875 
L 18.109375 54.6875 
L 18.109375 46.1875 
Q 20.953125 51.171875 25.484375 53.578125 
Q 30.03125 56 36.53125 56 
Q 37.453125 56 38.578125 55.875 
Q 39.703125 55.765625 41.0625 55.515625 
z
" id="DejaVuSans-114"/>
      <path d="M 44.28125 53.078125 
L 44.28125 44.578125 
Q 40.484375 46.53125 36.375 47.5 
Q 32.28125 48.484375 27.875 48.484375 
Q 21.1875 48.484375 17.84375 46.4375 
Q 14.5 44.390625 14.5 40.28125 
Q 14.5 37.15625 16.890625 35.375 
Q 19.28125 33.59375 26.515625 31.984375 
L 29.59375 31.296875 
Q 39.15625 29.25 43.1875 25.515625 
Q 47.21875 21.78125 47.21875 15.09375 
Q 47.21875 7.46875 41.1875 3.015625 
Q 35.15625 -1.421875 24.609375 -1.421875 
Q 20.21875 -1.421875 15.453125 -0.5625 
Q 10.6875 0.296875 5.421875 2 
L 5.421875 11.28125 
Q 10.40625 8.6875 15.234375 7.390625 
Q 20.0625 6.109375 24.8125 6.109375 
Q 31.15625 6.109375 34.5625 8.28125 
Q 37.984375 10.453125 37.984375 14.40625 
Q 37.984375 18.0625 35.515625 20.015625 
Q 33.0625 21.96875 24.703125 23.78125 
L 21.578125 24.515625 
Q 13.234375 26.265625 9.515625 29.90625 
Q 5.8125 33.546875 5.8125 39.890625 
Q 5.8125 47.609375 11.28125 51.796875 
Q 16.75 56 26.8125 56 
Q 31.78125 56 36.171875 55.265625 
Q 40.578125 54.546875 44.28125 53.078125 
z
" id="DejaVuSans-115"/>
      <path d="M 5.515625 54.6875 
L 48.1875 54.6875 
L 48.1875 46.484375 
L 14.40625 7.171875 
L 48.1875 7.171875 
L 48.1875 0 
L 4.296875 0 
L 4.296875 8.203125 
L 38.09375 47.515625 
L 5.515625 47.515625 
z
" id="DejaVuSans-122"/>
     </defs>
     <g transform="translate(193.59125 335.860562)scale(0.1 -0.1)">
      <use xlink:href="#DejaVuSans-104"/>
      <use x="63.378906" xlink:href="#DejaVuSans-105"/>
      <use x="91.162109" xlink:href="#DejaVuSans-100"/>
      <use x="154.638672" xlink:href="#DejaVuSans-100"/>
      <use x="218.115234" xlink:href="#DejaVuSans-101"/>
      <use x="279.638672" xlink:href="#DejaVuSans-110"/>
      <use x="343.017578" xlink:href="#DejaVuSans-32"/>
      <use x="374.804688" xlink:href="#DejaVuSans-108"/>
      <use x="402.587891" xlink:href="#DejaVuSans-97"/>
      <use x="463.867188" xlink:href="#DejaVuSans-121"/>
      <use x="523.046875" xlink:href="#DejaVuSans-101"/>
      <use x="584.570312" xlink:href="#DejaVuSans-114"/>
      <use x="625.683594" xlink:href="#DejaVuSans-32"/>
      <use x="657.470703" xlink:href="#DejaVuSans-115"/>
      <use x="709.570312" xlink:href="#DejaVuSans-105"/>
      <use x="737.353516" xlink:href="#DejaVuSans-122"/>
      <use x="789.84375" xlink:href="#DejaVuSans-101"/>
     </g>
    </g>
   </g>
   <g id="matplotlib.axis_2">
    <g id="ytick_1">
     <g id="line2d_5">
      <defs>
       <path d="M 0 0 
L -3.5 0 
" id="m0bc348cf09" style="stroke:#000000;stroke-width:0.8;"/>
      </defs>
      <g>
       <use style="stroke:#000000;stroke-width:0.8;" x="57.6" xlink:href="#m0bc348cf09" y="295.112736"/>
      </g>
     </g>
     <g id="text_6">
      <!-- 0.5 -->
      <defs>
       <path d="M 31.78125 66.40625 
Q 24.171875 66.40625 20.328125 58.90625 
Q 16.5 51.421875 16.5 36.375 
Q 16.5 21.390625 20.328125 13.890625 
Q 24.171875 6.390625 31.78125 6.390625 
Q 39.453125 6.390625 43.28125 13.890625 
Q 47.125 21.390625 47.125 36.375 
Q 47.125 51.421875 43.28125 58.90625 
Q 39.453125 66.40625 31.78125 66.40625 
z
M 31.78125 74.21875 
Q 44.046875 74.21875 50.515625 64.515625 
Q 56.984375 54.828125 56.984375 36.375 
Q 56.984375 17.96875 50.515625 8.265625 
Q 44.046875 -1.421875 31.78125 -1.421875 
Q 19.53125 -1.421875 13.0625 8.265625 
Q 6.59375 17.96875 6.59375 36.375 
Q 6.59375 54.828125 13.0625 64.515625 
Q 19.53125 74.21875 31.78125 74.21875 
z
" id="DejaVuSans-48"/>
       <path d="M 10.6875 12.40625 
L 21 12.40625 
L 21 0 
L 10.6875 0 
z
" id="DejaVuSans-46"/>
       <path d="M 10.796875 72.90625 
L 49.515625 72.90625 
L 49.515625 64.59375 
L 19.828125 64.59375 
L 19.828125 46.734375 
Q 21.96875 47.46875 24.109375 47.828125 
Q 26.265625 48.1875 28.421875 48.1875 
Q 40.625 48.1875 47.75 41.5 
Q 54.890625 34.8125 54.890625 23.390625 
Q 54.890625 11.625 47.5625 5.09375 
Q 40.234375 -1.421875 26.90625 -1.421875 
Q 22.3125 -1.421875 17.546875 -0.640625 
Q 12.796875 0.140625 7.71875 1.703125 
L 7.71875 11.625 
Q 12.109375 9.234375 16.796875 8.0625 
Q 21.484375 6.890625 26.703125 6.890625 
Q 35.15625 6.890625 40.078125 11.328125 
Q 45.015625 15.765625 45.015625 23.390625 
Q 45.015625 31 40.078125 35.4375 
Q 35.15625 39.890625 26.703125 39.890625 
Q 22.75 39.890625 18.8125 39.015625 
Q 14.890625 38.140625 10.796875 36.28125 
z
" id="DejaVuSans-53"/>
      </defs>
      <g transform="translate(34.696875 298.911955)scale(0.1 -0.1)">
       <use xlink:href="#DejaVuSans-48"/>
       <use x="63.623047" xlink:href="#DejaVuSans-46"/>
       <use x="95.410156" xlink:href="#DejaVuSans-53"/>
      </g>
     </g>
    </g>
    <g id="ytick_2">
     <g id="line2d_6">
      <g>
       <use style="stroke:#000000;stroke-width:0.8;" x="57.6" xlink:href="#m0bc348cf09" y="245.077576"/>
      </g>
     </g>
     <g id="text_7">
      <!-- 0.6 -->
      <g transform="translate(34.696875 248.876795)scale(0.1 -0.1)">
       <use xlink:href="#DejaVuSans-48"/>
       <use x="63.623047" xlink:href="#DejaVuSans-46"/>
       <use x="95.410156" xlink:href="#DejaVuSans-54"/>
      </g>
     </g>
    </g>
    <g id="ytick_3">
     <g id="line2d_7">
      <g>
       <use style="stroke:#000000;stroke-width:0.8;" x="57.6" xlink:href="#m0bc348cf09" y="195.042416"/>
      </g>
     </g>
     <g id="text_8">
      <!-- 0.7 -->
      <defs>
       <path d="M 8.203125 72.90625 
L 55.078125 72.90625 
L 55.078125 68.703125 
L 28.609375 0 
L 18.3125 0 
L 43.21875 64.59375 
L 8.203125 64.59375 
z
" id="DejaVuSans-55"/>
      </defs>
      <g transform="translate(34.696875 198.841634)scale(0.1 -0.1)">
       <use xlink:href="#DejaVuSans-48"/>
       <use x="63.623047" xlink:href="#DejaVuSans-46"/>
       <use x="95.410156" xlink:href="#DejaVuSans-55"/>
      </g>
     </g>
    </g>
    <g id="ytick_4">
     <g id="line2d_8">
      <g>
       <use style="stroke:#000000;stroke-width:0.8;" x="57.6" xlink:href="#m0bc348cf09" y="145.007255"/>
      </g>
     </g>
     <g id="text_9">
      <!-- 0.8 -->
      <g transform="translate(34.696875 148.806474)scale(0.1 -0.1)">
       <use xlink:href="#DejaVuSans-48"/>
       <use x="63.623047" xlink:href="#DejaVuSans-46"/>
       <use x="95.410156" xlink:href="#DejaVuSans-56"/>
      </g>
     </g>
    </g>
    <g id="ytick_5">
     <g id="line2d_9">
      <g>
       <use style="stroke:#000000;stroke-width:0.8;" x="57.6" xlink:href="#m0bc348cf09" y="94.972095"/>
      </g>
     </g>
     <g id="text_10">
      <!-- 0.9 -->
      <defs>
       <path d="M 10.984375 1.515625 
L 10.984375 10.5 
Q 14.703125 8.734375 18.5 7.8125 
Q 22.3125 6.890625 25.984375 6.890625 
Q 35.75 6.890625 40.890625 13.453125 
Q 46.046875 20.015625 46.78125 33.40625 
Q 43.953125 29.203125 39.59375 26.953125 
Q 35.25 24.703125 29.984375 24.703125 
Q 19.046875 24.703125 12.671875 31.3125 
Q 6.296875 37.9375 6.296875 49.421875 
Q 6.296875 60.640625 12.9375 67.421875 
Q 19.578125 74.21875 30.609375 74.21875 
Q 43.265625 74.21875 49.921875 64.515625 
Q 56.59375 54.828125 56.59375 36.375 
Q 56.59375 19.140625 48.40625 8.859375 
Q 40.234375 -1.421875 26.421875 -1.421875 
Q 22.703125 -1.421875 18.890625 -0.6875 
Q 15.09375 0.046875 10.984375 1.515625 
z
M 30.609375 32.421875 
Q 37.25 32.421875 41.125 36.953125 
Q 45.015625 41.5 45.015625 49.421875 
Q 45.015625 57.28125 41.125 61.84375 
Q 37.25 66.40625 30.609375 66.40625 
Q 23.96875 66.40625 20.09375 61.84375 
Q 16.21875 57.28125 16.21875 49.421875 
Q 16.21875 41.5 20.09375 36.953125 
Q 23.96875 32.421875 30.609375 32.421875 
z
" id="DejaVuSans-57"/>
      </defs>
      <g transform="translate(34.696875 98.771314)scale(0.1 -0.1)">
       <use xlink:href="#DejaVuSans-48"/>
       <use x="63.623047" xlink:href="#DejaVuSans-46"/>
       <use x="95.410156" xlink:href="#DejaVuSans-57"/>
      </g>
     </g>
    </g>
    <g id="ytick_6">
     <g id="line2d_10">
      <g>
       <use style="stroke:#000000;stroke-width:0.8;" x="57.6" xlink:href="#m0bc348cf09" y="44.936935"/>
      </g>
     </g>
     <g id="text_11">
      <!-- 1.0 -->
      <g transform="translate(34.696875 48.736154)scale(0.1 -0.1)">
       <use xlink:href="#DejaVuSans-49"/>
       <use x="63.623047" xlink:href="#DejaVuSans-46"/>
       <use x="95.410156" xlink:href="#DejaVuSans-48"/>
      </g>
     </g>
    </g>
    <g id="text_12">
     <!-- test accuracy -->
     <defs>
      <path d="M 18.3125 70.21875 
L 18.3125 54.6875 
L 36.8125 54.6875 
L 36.8125 47.703125 
L 18.3125 47.703125 
L 18.3125 18.015625 
Q 18.3125 11.328125 20.140625 9.421875 
Q 21.96875 7.515625 27.59375 7.515625 
L 36.8125 7.515625 
L 36.8125 0 
L 27.59375 0 
Q 17.1875 0 13.234375 3.875 
Q 9.28125 7.765625 9.28125 18.015625 
L 9.28125 47.703125 
L 2.6875 47.703125 
L 2.6875 54.6875 
L 9.28125 54.6875 
L 9.28125 70.21875 
z
" id="DejaVuSans-116"/>
      <path d="M 48.78125 52.59375 
L 48.78125 44.1875 
Q 44.96875 46.296875 41.140625 47.34375 
Q 37.3125 48.390625 33.40625 48.390625 
Q 24.65625 48.390625 19.8125 42.84375 
Q 14.984375 37.3125 14.984375 27.296875 
Q 14.984375 17.28125 19.8125 11.734375 
Q 24.65625 6.203125 33.40625 6.203125 
Q 37.3125 6.203125 41.140625 7.25 
Q 44.96875 8.296875 48.78125 10.40625 
L 48.78125 2.09375 
Q 45.015625 0.34375 40.984375 -0.53125 
Q 36.96875 -1.421875 32.421875 -1.421875 
Q 20.0625 -1.421875 12.78125 6.34375 
Q 5.515625 14.109375 5.515625 27.296875 
Q 5.515625 40.671875 12.859375 48.328125 
Q 20.21875 56 33.015625 56 
Q 37.15625 56 41.109375 55.140625 
Q 45.0625 54.296875 48.78125 52.59375 
z
" id="DejaVuSans-99"/>
      <path d="M 8.5 21.578125 
L 8.5 54.6875 
L 17.484375 54.6875 
L 17.484375 21.921875 
Q 17.484375 14.15625 20.5 10.265625 
Q 23.53125 6.390625 29.59375 6.390625 
Q 36.859375 6.390625 41.078125 11.03125 
Q 45.3125 15.671875 45.3125 23.6875 
L 45.3125 54.6875 
L 54.296875 54.6875 
L 54.296875 0 
L 45.3125 0 
L 45.3125 8.40625 
Q 42.046875 3.421875 37.71875 1 
Q 33.40625 -1.421875 27.6875 -1.421875 
Q 18.265625 -1.421875 13.375 4.4375 
Q 8.5 10.296875 8.5 21.578125 
z
M 31.109375 56 
z
" id="DejaVuSans-117"/>
     </defs>
     <g transform="translate(28.617187 208.278)rotate(-90)scale(0.1 -0.1)">
      <use xlink:href="#DejaVuSans-116"/>
      <use x="39.208984" xlink:href="#DejaVuSans-101"/>
      <use x="100.732422" xlink:href="#DejaVuSans-115"/>
      <use x="152.832031" xlink:href="#DejaVuSans-116"/>
      <use x="192.041016" xlink:href="#DejaVuSans-32"/>
      <use x="223.828125" xlink:href="#DejaVuSans-97"/>
      <use x="285.107422" xlink:href="#DejaVuSans-99"/>
      <use x="340.087891" xlink:href="#DejaVuSans-99"/>
      <use x="395.068359" xlink:href="#DejaVuSans-117"/>
      <use x="458.447266" xlink:href="#DejaVuSans-114"/>
      <use x="499.560547" xlink:href="#DejaVuSans-97"/>
      <use x="560.839844" xlink:href="#DejaVuSans-99"/>
      <use x="615.820312" xlink:href="#DejaVuSans-121"/>
     </g>
    </g>
   </g>
   <g id="line2d_11">
    <path clip-path="url(#p02c7f32532)" d="M 84.384 190.726883 
L 84.384 241.199851 
" style="fill:none;stroke:#3274a1;stroke-linecap:square;stroke-width:1.5;"/>
   </g>
   <g id="line2d_12">
    <path clip-path="url(#p02c7f32532)" d="M 84.384 156.233895 
L 84.384 134.249696 
" style="fill:none;stroke:#3274a1;stroke-linecap:square;stroke-width:1.5;"/>
   </g>
   <g id="line2d_13">
    <path clip-path="url(#p02c7f32532)" d="M 75.63456 241.199851 
L 93.13344 241.199851 
" style="fill:none;stroke:#3274a1;stroke-linecap:square;stroke-width:1.5;"/>
   </g>
   <g id="line2d_14">
    <path clip-path="url(#p02c7f32532)" d="M 75.63456 134.249696 
L 93.13344 134.249696 
" style="fill:none;stroke:#3274a1;stroke-linecap:square;stroke-width:1.5;"/>
   </g>
   <g id="line2d_15">
    <defs>
     <path d="M 0 3.535534 
L 2.12132 0 
L 0 -3.535534 
L -2.12132 0 
z
" id="m574741b09b" style="stroke:#3274a1;stroke-linejoin:miter;"/>
    </defs>
    <g clip-path="url(#p02c7f32532)">
     <use style="fill:#3274a1;stroke:#3274a1;stroke-linejoin:miter;" x="84.384" xlink:href="#m574741b09b" y="274.473233"/>
     <use style="fill:#3274a1;stroke:#3274a1;stroke-linejoin:miter;" x="84.384" xlink:href="#m574741b09b" y="252.833026"/>
     <use style="fill:#3274a1;stroke:#3274a1;stroke-linejoin:miter;" x="84.384" xlink:href="#m574741b09b" y="248.580037"/>
     <use style="fill:#3274a1;stroke:#3274a1;stroke-linejoin:miter;" x="84.384" xlink:href="#m574741b09b" y="276.474639"/>
     <use style="fill:#3274a1;stroke:#3274a1;stroke-linejoin:miter;" x="84.384" xlink:href="#m574741b09b" y="249.455653"/>
     <use style="fill:#3274a1;stroke:#3274a1;stroke-linejoin:miter;" x="84.384" xlink:href="#m574741b09b" y="280.977804"/>
     <use style="fill:#3274a1;stroke:#3274a1;stroke-linejoin:miter;" x="84.384" xlink:href="#m574741b09b" y="244.076873"/>
     <use style="fill:#3274a1;stroke:#3274a1;stroke-linejoin:miter;" x="84.384" xlink:href="#m574741b09b" y="250.956707"/>
     <use style="fill:#3274a1;stroke:#3274a1;stroke-linejoin:miter;" x="84.384" xlink:href="#m574741b09b" y="272.596914"/>
     <use style="fill:#3274a1;stroke:#3274a1;stroke-linejoin:miter;" x="84.384" xlink:href="#m574741b09b" y="245.202664"/>
     <use style="fill:#3274a1;stroke:#3274a1;stroke-linejoin:miter;" x="84.384" xlink:href="#m574741b09b" y="255.710048"/>
     <use style="fill:#3274a1;stroke:#3274a1;stroke-linejoin:miter;" x="84.384" xlink:href="#m574741b09b" y="283.479562"/>
     <use style="fill:#3274a1;stroke:#3274a1;stroke-linejoin:miter;" x="84.384" xlink:href="#m574741b09b" y="245.077576"/>
     <use style="fill:#3274a1;stroke:#3274a1;stroke-linejoin:miter;" x="84.384" xlink:href="#m574741b09b" y="281.603243"/>
     <use style="fill:#3274a1;stroke:#3274a1;stroke-linejoin:miter;" x="84.384" xlink:href="#m574741b09b" y="276.224463"/>
     <use style="fill:#3274a1;stroke:#3274a1;stroke-linejoin:miter;" x="84.384" xlink:href="#m574741b09b" y="283.354474"/>
     <use style="fill:#3274a1;stroke:#3274a1;stroke-linejoin:miter;" x="84.384" xlink:href="#m574741b09b" y="250.331268"/>
     <use style="fill:#3274a1;stroke:#3274a1;stroke-linejoin:miter;" x="84.384" xlink:href="#m574741b09b" y="264.341113"/>
     <use style="fill:#3274a1;stroke:#3274a1;stroke-linejoin:miter;" x="84.384" xlink:href="#m574741b09b" y="276.224463"/>
     <use style="fill:#3274a1;stroke:#3274a1;stroke-linejoin:miter;" x="84.384" xlink:href="#m574741b09b" y="256.460575"/>
     <use style="fill:#3274a1;stroke:#3274a1;stroke-linejoin:miter;" x="84.384" xlink:href="#m574741b09b" y="271.220947"/>
     <use style="fill:#3274a1;stroke:#3274a1;stroke-linejoin:miter;" x="84.384" xlink:href="#m574741b09b" y="264.966552"/>
     <use style="fill:#3274a1;stroke:#3274a1;stroke-linejoin:miter;" x="84.384" xlink:href="#m574741b09b" y="256.085311"/>
     <use style="fill:#3274a1;stroke:#3274a1;stroke-linejoin:miter;" x="84.384" xlink:href="#m574741b09b" y="270.845684"/>
     <use style="fill:#3274a1;stroke:#3274a1;stroke-linejoin:miter;" x="84.384" xlink:href="#m574741b09b" y="259.462685"/>
     <use style="fill:#3274a1;stroke:#3274a1;stroke-linejoin:miter;" x="84.384" xlink:href="#m574741b09b" y="265.466904"/>
     <use style="fill:#3274a1;stroke:#3274a1;stroke-linejoin:miter;" x="84.384" xlink:href="#m574741b09b" y="273.472529"/>
     <use style="fill:#3274a1;stroke:#3274a1;stroke-linejoin:miter;" x="84.384" xlink:href="#m574741b09b" y="271.220947"/>
     <use style="fill:#3274a1;stroke:#3274a1;stroke-linejoin:miter;" x="84.384" xlink:href="#m574741b09b" y="256.585663"/>
     <use style="fill:#3274a1;stroke:#3274a1;stroke-linejoin:miter;" x="84.384" xlink:href="#m574741b09b" y="250.831619"/>
     <use style="fill:#3274a1;stroke:#3274a1;stroke-linejoin:miter;" x="84.384" xlink:href="#m574741b09b" y="261.213915"/>
     <use style="fill:#3274a1;stroke:#3274a1;stroke-linejoin:miter;" x="84.384" xlink:href="#m574741b09b" y="246.328455"/>
     <use style="fill:#3274a1;stroke:#3274a1;stroke-linejoin:miter;" x="84.384" xlink:href="#m574741b09b" y="266.092343"/>
     <use style="fill:#3274a1;stroke:#3274a1;stroke-linejoin:miter;" x="84.384" xlink:href="#m574741b09b" y="247.078982"/>
     <use style="fill:#3274a1;stroke:#3274a1;stroke-linejoin:miter;" x="84.384" xlink:href="#m574741b09b" y="249.705828"/>
     <use style="fill:#3274a1;stroke:#3274a1;stroke-linejoin:miter;" x="84.384" xlink:href="#m574741b09b" y="279.476749"/>
     <use style="fill:#3274a1;stroke:#3274a1;stroke-linejoin:miter;" x="84.384" xlink:href="#m574741b09b" y="266.842871"/>
     <use style="fill:#3274a1;stroke:#3274a1;stroke-linejoin:miter;" x="84.384" xlink:href="#m574741b09b" y="289.984132"/>
     <use style="fill:#3274a1;stroke:#3274a1;stroke-linejoin:miter;" x="84.384" xlink:href="#m574741b09b" y="258.211806"/>
     <use style="fill:#3274a1;stroke:#3274a1;stroke-linejoin:miter;" x="84.384" xlink:href="#m574741b09b" y="273.347442"/>
     <use style="fill:#3274a1;stroke:#3274a1;stroke-linejoin:miter;" x="84.384" xlink:href="#m574741b09b" y="264.966552"/>
     <use style="fill:#3274a1;stroke:#3274a1;stroke-linejoin:miter;" x="84.384" xlink:href="#m574741b09b" y="246.328455"/>
     <use style="fill:#3274a1;stroke:#3274a1;stroke-linejoin:miter;" x="84.384" xlink:href="#m574741b09b" y="243.701609"/>
     <use style="fill:#3274a1;stroke:#3274a1;stroke-linejoin:miter;" x="84.384" xlink:href="#m574741b09b" y="244.327049"/>
     <use style="fill:#3274a1;stroke:#3274a1;stroke-linejoin:miter;" x="84.384" xlink:href="#m574741b09b" y="264.966552"/>
     <use style="fill:#3274a1;stroke:#3274a1;stroke-linejoin:miter;" x="84.384" xlink:href="#m574741b09b" y="255.334784"/>
     <use style="fill:#3274a1;stroke:#3274a1;stroke-linejoin:miter;" x="84.384" xlink:href="#m574741b09b" y="275.098672"/>
     <use style="fill:#3274a1;stroke:#3274a1;stroke-linejoin:miter;" x="84.384" xlink:href="#m574741b09b" y="266.592695"/>
     <use style="fill:#3274a1;stroke:#3274a1;stroke-linejoin:miter;" x="84.384" xlink:href="#m574741b09b" y="243.951785"/>
     <use style="fill:#3274a1;stroke:#3274a1;stroke-linejoin:miter;" x="84.384" xlink:href="#m574741b09b" y="290.359396"/>
     <use style="fill:#3274a1;stroke:#3274a1;stroke-linejoin:miter;" x="84.384" xlink:href="#m574741b09b" y="248.329861"/>
     <use style="fill:#3274a1;stroke:#3274a1;stroke-linejoin:miter;" x="84.384" xlink:href="#m574741b09b" y="294.86256"/>
     <use style="fill:#3274a1;stroke:#3274a1;stroke-linejoin:miter;" x="84.384" xlink:href="#m574741b09b" y="295.488"/>
     <use style="fill:#3274a1;stroke:#3274a1;stroke-linejoin:miter;" x="84.384" xlink:href="#m574741b09b" y="276.974991"/>
     <use style="fill:#3274a1;stroke:#3274a1;stroke-linejoin:miter;" x="84.384" xlink:href="#m574741b09b" y="263.34041"/>
     <use style="fill:#3274a1;stroke:#3274a1;stroke-linejoin:miter;" x="84.384" xlink:href="#m574741b09b" y="273.222354"/>
     <use style="fill:#3274a1;stroke:#3274a1;stroke-linejoin:miter;" x="84.384" xlink:href="#m574741b09b" y="284.605353"/>
     <use style="fill:#3274a1;stroke:#3274a1;stroke-linejoin:miter;" x="84.384" xlink:href="#m574741b09b" y="246.828807"/>
     <use style="fill:#3274a1;stroke:#3274a1;stroke-linejoin:miter;" x="84.384" xlink:href="#m574741b09b" y="244.702312"/>
     <use style="fill:#3274a1;stroke:#3274a1;stroke-linejoin:miter;" x="84.384" xlink:href="#m574741b09b" y="252.833026"/>
     <use style="fill:#3274a1;stroke:#3274a1;stroke-linejoin:miter;" x="84.384" xlink:href="#m574741b09b" y="270.720596"/>
     <use style="fill:#3274a1;stroke:#3274a1;stroke-linejoin:miter;" x="84.384" xlink:href="#m574741b09b" y="246.078279"/>
     <use style="fill:#3274a1;stroke:#3274a1;stroke-linejoin:miter;" x="84.384" xlink:href="#m574741b09b" y="275.8492"/>
     <use style="fill:#3274a1;stroke:#3274a1;stroke-linejoin:miter;" x="84.384" xlink:href="#m574741b09b" y="257.836542"/>
     <use style="fill:#3274a1;stroke:#3274a1;stroke-linejoin:miter;" x="84.384" xlink:href="#m574741b09b" y="261.339003"/>
     <use style="fill:#3274a1;stroke:#3274a1;stroke-linejoin:miter;" x="84.384" xlink:href="#m574741b09b" y="278.476046"/>
     <use style="fill:#3274a1;stroke:#3274a1;stroke-linejoin:miter;" x="84.384" xlink:href="#m574741b09b" y="282.729034"/>
     <use style="fill:#3274a1;stroke:#3274a1;stroke-linejoin:miter;" x="84.384" xlink:href="#m574741b09b" y="262.089531"/>
     <use style="fill:#3274a1;stroke:#3274a1;stroke-linejoin:miter;" x="84.384" xlink:href="#m574741b09b" y="294.987648"/>
     <use style="fill:#3274a1;stroke:#3274a1;stroke-linejoin:miter;" x="84.384" xlink:href="#m574741b09b" y="247.454246"/>
     <use style="fill:#3274a1;stroke:#3274a1;stroke-linejoin:miter;" x="84.384" xlink:href="#m574741b09b" y="253.20829"/>
     <use style="fill:#3274a1;stroke:#3274a1;stroke-linejoin:miter;" x="84.384" xlink:href="#m574741b09b" y="245.703016"/>
    </g>
   </g>
   <g id="line2d_16">
    <path clip-path="url(#p02c7f32532)" d="M 120.096 202.70405 
L 120.096 218.308765 
" style="fill:none;stroke:#e1812c;stroke-linecap:square;stroke-width:1.5;"/>
   </g>
   <g id="line2d_17">
    <path clip-path="url(#p02c7f32532)" d="M 120.096 190.414163 
L 120.096 172.026242 
" style="fill:none;stroke:#e1812c;stroke-linecap:square;stroke-width:1.5;"/>
   </g>
   <g id="line2d_18">
    <path clip-path="url(#p02c7f32532)" d="M 111.34656 218.308765 
L 128.84544 218.308765 
" style="fill:none;stroke:#e1812c;stroke-linecap:square;stroke-width:1.5;"/>
   </g>
   <g id="line2d_19">
    <path clip-path="url(#p02c7f32532)" d="M 111.34656 172.026242 
L 128.84544 172.026242 
" style="fill:none;stroke:#e1812c;stroke-linecap:square;stroke-width:1.5;"/>
   </g>
   <g id="line2d_20">
    <defs>
     <path d="M 0 3.535534 
L 2.12132 0 
L 0 -3.535534 
L -2.12132 0 
z
" id="m0e7ecee4da" style="stroke:#e1812c;stroke-linejoin:miter;"/>
    </defs>
    <g clip-path="url(#p02c7f32532)">
     <use style="fill:#e1812c;stroke:#e1812c;stroke-linejoin:miter;" x="120.096" xlink:href="#m0e7ecee4da" y="160.893419"/>
     <use style="fill:#e1812c;stroke:#e1812c;stroke-linejoin:miter;" x="120.096" xlink:href="#m0e7ecee4da" y="166.272199"/>
     <use style="fill:#e1812c;stroke:#e1812c;stroke-linejoin:miter;" x="120.096" xlink:href="#m0e7ecee4da" y="166.522374"/>
     <use style="fill:#e1812c;stroke:#e1812c;stroke-linejoin:miter;" x="120.096" xlink:href="#m0e7ecee4da" y="155.139375"/>
     <use style="fill:#e1812c;stroke:#e1812c;stroke-linejoin:miter;" x="120.096" xlink:href="#m0e7ecee4da" y="167.648165"/>
     <use style="fill:#e1812c;stroke:#e1812c;stroke-linejoin:miter;" x="120.096" xlink:href="#m0e7ecee4da" y="170.775363"/>
     <use style="fill:#e1812c;stroke:#e1812c;stroke-linejoin:miter;" x="120.096" xlink:href="#m0e7ecee4da" y="170.400099"/>
     <use style="fill:#e1812c;stroke:#e1812c;stroke-linejoin:miter;" x="120.096" xlink:href="#m0e7ecee4da" y="160.518155"/>
     <use style="fill:#e1812c;stroke:#e1812c;stroke-linejoin:miter;" x="120.096" xlink:href="#m0e7ecee4da" y="161.518858"/>
     <use style="fill:#e1812c;stroke:#e1812c;stroke-linejoin:miter;" x="120.096" xlink:href="#m0e7ecee4da" y="151.26165"/>
     <use style="fill:#e1812c;stroke:#e1812c;stroke-linejoin:miter;" x="120.096" xlink:href="#m0e7ecee4da" y="168.773957"/>
     <use style="fill:#e1812c;stroke:#e1812c;stroke-linejoin:miter;" x="120.096" xlink:href="#m0e7ecee4da" y="156.64043"/>
     <use style="fill:#e1812c;stroke:#e1812c;stroke-linejoin:miter;" x="120.096" xlink:href="#m0e7ecee4da" y="171.650978"/>
     <use style="fill:#e1812c;stroke:#e1812c;stroke-linejoin:miter;" x="120.096" xlink:href="#m0e7ecee4da" y="168.398693"/>
     <use style="fill:#e1812c;stroke:#e1812c;stroke-linejoin:miter;" x="120.096" xlink:href="#m0e7ecee4da" y="167.898341"/>
     <use style="fill:#e1812c;stroke:#e1812c;stroke-linejoin:miter;" x="120.096" xlink:href="#m0e7ecee4da" y="167.523078"/>
     <use style="fill:#e1812c;stroke:#e1812c;stroke-linejoin:miter;" x="120.096" xlink:href="#m0e7ecee4da" y="171.901154"/>
     <use style="fill:#e1812c;stroke:#e1812c;stroke-linejoin:miter;" x="120.096" xlink:href="#m0e7ecee4da" y="163.520265"/>
     <use style="fill:#e1812c;stroke:#e1812c;stroke-linejoin:miter;" x="120.096" xlink:href="#m0e7ecee4da" y="148.384629"/>
     <use style="fill:#e1812c;stroke:#e1812c;stroke-linejoin:miter;" x="120.096" xlink:href="#m0e7ecee4da" y="163.019913"/>
     <use style="fill:#e1812c;stroke:#e1812c;stroke-linejoin:miter;" x="120.096" xlink:href="#m0e7ecee4da" y="169.77466"/>
     <use style="fill:#e1812c;stroke:#e1812c;stroke-linejoin:miter;" x="120.096" xlink:href="#m0e7ecee4da" y="168.023429"/>
     <use style="fill:#e1812c;stroke:#e1812c;stroke-linejoin:miter;" x="120.096" xlink:href="#m0e7ecee4da" y="147.13375"/>
     <use style="fill:#e1812c;stroke:#e1812c;stroke-linejoin:miter;" x="120.096" xlink:href="#m0e7ecee4da" y="159.142188"/>
     <use style="fill:#e1812c;stroke:#e1812c;stroke-linejoin:miter;" x="120.096" xlink:href="#m0e7ecee4da" y="152.887793"/>
     <use style="fill:#e1812c;stroke:#e1812c;stroke-linejoin:miter;" x="120.096" xlink:href="#m0e7ecee4da" y="166.647462"/>
     <use style="fill:#e1812c;stroke:#e1812c;stroke-linejoin:miter;" x="120.096" xlink:href="#m0e7ecee4da" y="171.150627"/>
     <use style="fill:#e1812c;stroke:#e1812c;stroke-linejoin:miter;" x="120.096" xlink:href="#m0e7ecee4da" y="170.400099"/>
     <use style="fill:#e1812c;stroke:#e1812c;stroke-linejoin:miter;" x="120.096" xlink:href="#m0e7ecee4da" y="158.516749"/>
     <use style="fill:#e1812c;stroke:#e1812c;stroke-linejoin:miter;" x="120.096" xlink:href="#m0e7ecee4da" y="162.01921"/>
     <use style="fill:#e1812c;stroke:#e1812c;stroke-linejoin:miter;" x="120.096" xlink:href="#m0e7ecee4da" y="167.39799"/>
     <use style="fill:#e1812c;stroke:#e1812c;stroke-linejoin:miter;" x="120.096" xlink:href="#m0e7ecee4da" y="167.147814"/>
     <use style="fill:#e1812c;stroke:#e1812c;stroke-linejoin:miter;" x="120.096" xlink:href="#m0e7ecee4da" y="146.883574"/>
     <use style="fill:#e1812c;stroke:#e1812c;stroke-linejoin:miter;" x="120.096" xlink:href="#m0e7ecee4da" y="165.521671"/>
     <use style="fill:#e1812c;stroke:#e1812c;stroke-linejoin:miter;" x="120.096" xlink:href="#m0e7ecee4da" y="167.272902"/>
     <use style="fill:#e1812c;stroke:#e1812c;stroke-linejoin:miter;" x="120.096" xlink:href="#m0e7ecee4da" y="171.650978"/>
     <use style="fill:#e1812c;stroke:#e1812c;stroke-linejoin:miter;" x="120.096" xlink:href="#m0e7ecee4da" y="157.26587"/>
     <use style="fill:#e1812c;stroke:#e1812c;stroke-linejoin:miter;" x="120.096" xlink:href="#m0e7ecee4da" y="155.514639"/>
     <use style="fill:#e1812c;stroke:#e1812c;stroke-linejoin:miter;" x="120.096" xlink:href="#m0e7ecee4da" y="163.770441"/>
     <use style="fill:#e1812c;stroke:#e1812c;stroke-linejoin:miter;" x="120.096" xlink:href="#m0e7ecee4da" y="171.650978"/>
     <use style="fill:#e1812c;stroke:#e1812c;stroke-linejoin:miter;" x="120.096" xlink:href="#m0e7ecee4da" y="170.275011"/>
     <use style="fill:#e1812c;stroke:#e1812c;stroke-linejoin:miter;" x="120.096" xlink:href="#m0e7ecee4da" y="166.397286"/>
    </g>
   </g>
   <g id="line2d_21">
    <path clip-path="url(#p02c7f32532)" d="M 173.664 124.617928 
L 173.664 141.379706 
" style="fill:none;stroke:#3274a1;stroke-linecap:square;stroke-width:1.5;"/>
   </g>
   <g id="line2d_22">
    <path clip-path="url(#p02c7f32532)" d="M 173.664 113.360017 
L 173.664 98.724732 
" style="fill:none;stroke:#3274a1;stroke-linecap:square;stroke-width:1.5;"/>
   </g>
   <g id="line2d_23">
    <path clip-path="url(#p02c7f32532)" d="M 164.91456 141.379706 
L 182.41344 141.379706 
" style="fill:none;stroke:#3274a1;stroke-linecap:square;stroke-width:1.5;"/>
   </g>
   <g id="line2d_24">
    <path clip-path="url(#p02c7f32532)" d="M 164.91456 98.724732 
L 182.41344 98.724732 
" style="fill:none;stroke:#3274a1;stroke-linecap:square;stroke-width:1.5;"/>
   </g>
   <g id="line2d_25">
    <g clip-path="url(#p02c7f32532)">
     <use style="fill:#3274a1;stroke:#3274a1;stroke-linejoin:miter;" x="173.664" xlink:href="#m574741b09b" y="191.915218"/>
     <use style="fill:#3274a1;stroke:#3274a1;stroke-linejoin:miter;" x="173.664" xlink:href="#m574741b09b" y="151.511826"/>
     <use style="fill:#3274a1;stroke:#3274a1;stroke-linejoin:miter;" x="173.664" xlink:href="#m574741b09b" y="155.139375"/>
     <use style="fill:#3274a1;stroke:#3274a1;stroke-linejoin:miter;" x="173.664" xlink:href="#m574741b09b" y="145.757783"/>
     <use style="fill:#3274a1;stroke:#3274a1;stroke-linejoin:miter;" x="173.664" xlink:href="#m574741b09b" y="148.259541"/>
     <use style="fill:#3274a1;stroke:#3274a1;stroke-linejoin:miter;" x="173.664" xlink:href="#m574741b09b" y="145.132343"/>
     <use style="fill:#3274a1;stroke:#3274a1;stroke-linejoin:miter;" x="173.664" xlink:href="#m574741b09b" y="154.513936"/>
     <use style="fill:#3274a1;stroke:#3274a1;stroke-linejoin:miter;" x="173.664" xlink:href="#m574741b09b" y="151.011475"/>
     <use style="fill:#3274a1;stroke:#3274a1;stroke-linejoin:miter;" x="173.664" xlink:href="#m574741b09b" y="184.785208"/>
     <use style="fill:#3274a1;stroke:#3274a1;stroke-linejoin:miter;" x="173.664" xlink:href="#m574741b09b" y="211.428931"/>
     <use style="fill:#3274a1;stroke:#3274a1;stroke-linejoin:miter;" x="173.664" xlink:href="#m574741b09b" y="145.632695"/>
     <use style="fill:#3274a1;stroke:#3274a1;stroke-linejoin:miter;" x="173.664" xlink:href="#m574741b09b" y="144.006552"/>
     <use style="fill:#3274a1;stroke:#3274a1;stroke-linejoin:miter;" x="173.664" xlink:href="#m574741b09b" y="144.882168"/>
     <use style="fill:#3274a1;stroke:#3274a1;stroke-linejoin:miter;" x="173.664" xlink:href="#m574741b09b" y="148.759892"/>
     <use style="fill:#3274a1;stroke:#3274a1;stroke-linejoin:miter;" x="173.664" xlink:href="#m574741b09b" y="187.412054"/>
     <use style="fill:#3274a1;stroke:#3274a1;stroke-linejoin:miter;" x="173.664" xlink:href="#m574741b09b" y="159.267276"/>
     <use style="fill:#3274a1;stroke:#3274a1;stroke-linejoin:miter;" x="173.664" xlink:href="#m574741b09b" y="142.505497"/>
     <use style="fill:#3274a1;stroke:#3274a1;stroke-linejoin:miter;" x="173.664" xlink:href="#m574741b09b" y="254.208993"/>
     <use style="fill:#3274a1;stroke:#3274a1;stroke-linejoin:miter;" x="173.664" xlink:href="#m574741b09b" y="152.012178"/>
     <use style="fill:#3274a1;stroke:#3274a1;stroke-linejoin:miter;" x="173.664" xlink:href="#m574741b09b" y="142.255322"/>
     <use style="fill:#3274a1;stroke:#3274a1;stroke-linejoin:miter;" x="173.664" xlink:href="#m574741b09b" y="152.387442"/>
     <use style="fill:#3274a1;stroke:#3274a1;stroke-linejoin:miter;" x="173.664" xlink:href="#m574741b09b" y="162.644649"/>
     <use style="fill:#3274a1;stroke:#3274a1;stroke-linejoin:miter;" x="173.664" xlink:href="#m574741b09b" y="178.405725"/>
     <use style="fill:#3274a1;stroke:#3274a1;stroke-linejoin:miter;" x="173.664" xlink:href="#m574741b09b" y="175.403615"/>
     <use style="fill:#3274a1;stroke:#3274a1;stroke-linejoin:miter;" x="173.664" xlink:href="#m574741b09b" y="144.381816"/>
     <use style="fill:#3274a1;stroke:#3274a1;stroke-linejoin:miter;" x="173.664" xlink:href="#m574741b09b" y="155.139375"/>
     <use style="fill:#3274a1;stroke:#3274a1;stroke-linejoin:miter;" x="173.664" xlink:href="#m574741b09b" y="144.75708"/>
     <use style="fill:#3274a1;stroke:#3274a1;stroke-linejoin:miter;" x="173.664" xlink:href="#m574741b09b" y="157.766221"/>
     <use style="fill:#3274a1;stroke:#3274a1;stroke-linejoin:miter;" x="173.664" xlink:href="#m574741b09b" y="224.187897"/>
     <use style="fill:#3274a1;stroke:#3274a1;stroke-linejoin:miter;" x="173.664" xlink:href="#m574741b09b" y="171.52589"/>
     <use style="fill:#3274a1;stroke:#3274a1;stroke-linejoin:miter;" x="173.664" xlink:href="#m574741b09b" y="211.178755"/>
     <use style="fill:#3274a1;stroke:#3274a1;stroke-linejoin:miter;" x="173.664" xlink:href="#m574741b09b" y="148.259541"/>
     <use style="fill:#3274a1;stroke:#3274a1;stroke-linejoin:miter;" x="173.664" xlink:href="#m574741b09b" y="142.755673"/>
     <use style="fill:#3274a1;stroke:#3274a1;stroke-linejoin:miter;" x="173.664" xlink:href="#m574741b09b" y="144.631992"/>
     <use style="fill:#3274a1;stroke:#3274a1;stroke-linejoin:miter;" x="173.664" xlink:href="#m574741b09b" y="154.26376"/>
     <use style="fill:#3274a1;stroke:#3274a1;stroke-linejoin:miter;" x="173.664" xlink:href="#m574741b09b" y="155.389551"/>
     <use style="fill:#3274a1;stroke:#3274a1;stroke-linejoin:miter;" x="173.664" xlink:href="#m574741b09b" y="143.756376"/>
     <use style="fill:#3274a1;stroke:#3274a1;stroke-linejoin:miter;" x="173.664" xlink:href="#m574741b09b" y="148.634805"/>
     <use style="fill:#3274a1;stroke:#3274a1;stroke-linejoin:miter;" x="173.664" xlink:href="#m574741b09b" y="145.632695"/>
     <use style="fill:#3274a1;stroke:#3274a1;stroke-linejoin:miter;" x="173.664" xlink:href="#m574741b09b" y="163.520265"/>
     <use style="fill:#3274a1;stroke:#3274a1;stroke-linejoin:miter;" x="173.664" xlink:href="#m574741b09b" y="148.509717"/>
     <use style="fill:#3274a1;stroke:#3274a1;stroke-linejoin:miter;" x="173.664" xlink:href="#m574741b09b" y="144.006552"/>
     <use style="fill:#3274a1;stroke:#3274a1;stroke-linejoin:miter;" x="173.664" xlink:href="#m574741b09b" y="142.005146"/>
     <use style="fill:#3274a1;stroke:#3274a1;stroke-linejoin:miter;" x="173.664" xlink:href="#m574741b09b" y="192.540658"/>
     <use style="fill:#3274a1;stroke:#3274a1;stroke-linejoin:miter;" x="173.664" xlink:href="#m574741b09b" y="178.155549"/>
     <use style="fill:#3274a1;stroke:#3274a1;stroke-linejoin:miter;" x="173.664" xlink:href="#m574741b09b" y="151.88709"/>
     <use style="fill:#3274a1;stroke:#3274a1;stroke-linejoin:miter;" x="173.664" xlink:href="#m574741b09b" y="141.629882"/>
     <use style="fill:#3274a1;stroke:#3274a1;stroke-linejoin:miter;" x="173.664" xlink:href="#m574741b09b" y="240.324236"/>
     <use style="fill:#3274a1;stroke:#3274a1;stroke-linejoin:miter;" x="173.664" xlink:href="#m574741b09b" y="243.451433"/>
     <use style="fill:#3274a1;stroke:#3274a1;stroke-linejoin:miter;" x="173.664" xlink:href="#m574741b09b" y="263.840761"/>
     <use style="fill:#3274a1;stroke:#3274a1;stroke-linejoin:miter;" x="173.664" xlink:href="#m574741b09b" y="157.766221"/>
     <use style="fill:#3274a1;stroke:#3274a1;stroke-linejoin:miter;" x="173.664" xlink:href="#m574741b09b" y="148.634805"/>
     <use style="fill:#3274a1;stroke:#3274a1;stroke-linejoin:miter;" x="173.664" xlink:href="#m574741b09b" y="144.381816"/>
     <use style="fill:#3274a1;stroke:#3274a1;stroke-linejoin:miter;" x="173.664" xlink:href="#m574741b09b" y="151.26165"/>
     <use style="fill:#3274a1;stroke:#3274a1;stroke-linejoin:miter;" x="173.664" xlink:href="#m574741b09b" y="142.38041"/>
    </g>
   </g>
   <g id="line2d_26">
    <path clip-path="url(#p02c7f32532)" d="M 209.376 198.701237 
L 209.376 217.683326 
" style="fill:none;stroke:#e1812c;stroke-linecap:square;stroke-width:1.5;"/>
   </g>
   <g id="line2d_27">
    <path clip-path="url(#p02c7f32532)" d="M 209.376 161.143595 
L 209.376 108.606676 
" style="fill:none;stroke:#e1812c;stroke-linecap:square;stroke-width:1.5;"/>
   </g>
   <g id="line2d_28">
    <path clip-path="url(#p02c7f32532)" d="M 200.62656 217.683326 
L 218.12544 217.683326 
" style="fill:none;stroke:#e1812c;stroke-linecap:square;stroke-width:1.5;"/>
   </g>
   <g id="line2d_29">
    <path clip-path="url(#p02c7f32532)" d="M 200.62656 108.606676 
L 218.12544 108.606676 
" style="fill:none;stroke:#e1812c;stroke-linecap:square;stroke-width:1.5;"/>
   </g>
   <g id="line2d_30"/>
   <g id="line2d_31">
    <path clip-path="url(#p02c7f32532)" d="M 262.944 79.21102 
L 262.944 84.589799 
" style="fill:none;stroke:#3274a1;stroke-linecap:square;stroke-width:1.5;"/>
   </g>
   <g id="line2d_32">
    <path clip-path="url(#p02c7f32532)" d="M 262.944 75.583471 
L 262.944 70.579954 
" style="fill:none;stroke:#3274a1;stroke-linecap:square;stroke-width:1.5;"/>
   </g>
   <g id="line2d_33">
    <path clip-path="url(#p02c7f32532)" d="M 254.19456 84.589799 
L 271.69344 84.589799 
" style="fill:none;stroke:#3274a1;stroke-linecap:square;stroke-width:1.5;"/>
   </g>
   <g id="line2d_34">
    <path clip-path="url(#p02c7f32532)" d="M 254.19456 70.579954 
L 271.69344 70.579954 
" style="fill:none;stroke:#3274a1;stroke-linecap:square;stroke-width:1.5;"/>
   </g>
   <g id="line2d_35">
    <g clip-path="url(#p02c7f32532)">
     <use style="fill:#3274a1;stroke:#3274a1;stroke-linejoin:miter;" x="262.944" xlink:href="#m574741b09b" y="91.469634"/>
     <use style="fill:#3274a1;stroke:#3274a1;stroke-linejoin:miter;" x="262.944" xlink:href="#m574741b09b" y="86.215942"/>
     <use style="fill:#3274a1;stroke:#3274a1;stroke-linejoin:miter;" x="262.944" xlink:href="#m574741b09b" y="86.591206"/>
     <use style="fill:#3274a1;stroke:#3274a1;stroke-linejoin:miter;" x="262.944" xlink:href="#m574741b09b" y="85.340327"/>
     <use style="fill:#3274a1;stroke:#3274a1;stroke-linejoin:miter;" x="262.944" xlink:href="#m574741b09b" y="85.840678"/>
     <use style="fill:#3274a1;stroke:#3274a1;stroke-linejoin:miter;" x="262.944" xlink:href="#m574741b09b" y="85.590503"/>
     <use style="fill:#3274a1;stroke:#3274a1;stroke-linejoin:miter;" x="262.944" xlink:href="#m574741b09b" y="85.215239"/>
     <use style="fill:#3274a1;stroke:#3274a1;stroke-linejoin:miter;" x="262.944" xlink:href="#m574741b09b" y="84.839975"/>
     <use style="fill:#3274a1;stroke:#3274a1;stroke-linejoin:miter;" x="262.944" xlink:href="#m574741b09b" y="87.466821"/>
     <use style="fill:#3274a1;stroke:#3274a1;stroke-linejoin:miter;" x="262.944" xlink:href="#m574741b09b" y="85.590503"/>
     <use style="fill:#3274a1;stroke:#3274a1;stroke-linejoin:miter;" x="262.944" xlink:href="#m574741b09b" y="84.839975"/>
     <use style="fill:#3274a1;stroke:#3274a1;stroke-linejoin:miter;" x="262.944" xlink:href="#m574741b09b" y="90.594019"/>
    </g>
   </g>
   <g id="line2d_36">
    <path clip-path="url(#p02c7f32532)" d="M 298.656 197.16891 
L 298.656 221.811226 
" style="fill:none;stroke:#e1812c;stroke-linecap:square;stroke-width:1.5;"/>
   </g>
   <g id="line2d_37">
    <path clip-path="url(#p02c7f32532)" d="M 298.656 130.309427 
L 298.656 79.21102 
" style="fill:none;stroke:#e1812c;stroke-linecap:square;stroke-width:1.5;"/>
   </g>
   <g id="line2d_38">
    <path clip-path="url(#p02c7f32532)" d="M 289.90656 221.811226 
L 307.40544 221.811226 
" style="fill:none;stroke:#e1812c;stroke-linecap:square;stroke-width:1.5;"/>
   </g>
   <g id="line2d_39">
    <path clip-path="url(#p02c7f32532)" d="M 289.90656 79.21102 
L 307.40544 79.21102 
" style="fill:none;stroke:#e1812c;stroke-linecap:square;stroke-width:1.5;"/>
   </g>
   <g id="line2d_40"/>
   <g id="line2d_41">
    <path clip-path="url(#p02c7f32532)" d="M 352.224 58.571516 
L 352.224 61.198362 
" style="fill:none;stroke:#3274a1;stroke-linecap:square;stroke-width:1.5;"/>
   </g>
   <g id="line2d_42">
    <path clip-path="url(#p02c7f32532)" d="M 352.224 56.820285 
L 352.224 54.318527 
" style="fill:none;stroke:#3274a1;stroke-linecap:square;stroke-width:1.5;"/>
   </g>
   <g id="line2d_43">
    <path clip-path="url(#p02c7f32532)" d="M 343.47456 61.198362 
L 360.97344 61.198362 
" style="fill:none;stroke:#3274a1;stroke-linecap:square;stroke-width:1.5;"/>
   </g>
   <g id="line2d_44">
    <path clip-path="url(#p02c7f32532)" d="M 343.47456 54.318527 
L 360.97344 54.318527 
" style="fill:none;stroke:#3274a1;stroke-linecap:square;stroke-width:1.5;"/>
   </g>
   <g id="line2d_45">
    <g clip-path="url(#p02c7f32532)">
     <use style="fill:#3274a1;stroke:#3274a1;stroke-linejoin:miter;" x="352.224" xlink:href="#m574741b09b" y="61.32345"/>
     <use style="fill:#3274a1;stroke:#3274a1;stroke-linejoin:miter;" x="352.224" xlink:href="#m574741b09b" y="62.073977"/>
     <use style="fill:#3274a1;stroke:#3274a1;stroke-linejoin:miter;" x="352.224" xlink:href="#m574741b09b" y="61.698714"/>
     <use style="fill:#3274a1;stroke:#3274a1;stroke-linejoin:miter;" x="352.224" xlink:href="#m574741b09b" y="61.573626"/>
     <use style="fill:#3274a1;stroke:#3274a1;stroke-linejoin:miter;" x="352.224" xlink:href="#m574741b09b" y="54.068352"/>
     <use style="fill:#3274a1;stroke:#3274a1;stroke-linejoin:miter;" x="352.224" xlink:href="#m574741b09b" y="53.568"/>
    </g>
   </g>
   <g id="line2d_46">
    <path clip-path="url(#p02c7f32532)" d="M 387.936 196.918734 
L 387.936 230.067028 
" style="fill:none;stroke:#e1812c;stroke-linecap:square;stroke-width:1.5;"/>
   </g>
   <g id="line2d_47">
    <path clip-path="url(#p02c7f32532)" d="M 387.936 80.96225 
L 387.936 61.198362 
" style="fill:none;stroke:#e1812c;stroke-linecap:square;stroke-width:1.5;"/>
   </g>
   <g id="line2d_48">
    <path clip-path="url(#p02c7f32532)" d="M 379.18656 230.067028 
L 396.68544 230.067028 
" style="fill:none;stroke:#e1812c;stroke-linecap:square;stroke-width:1.5;"/>
   </g>
   <g id="line2d_49">
    <path clip-path="url(#p02c7f32532)" d="M 379.18656 61.198362 
L 396.68544 61.198362 
" style="fill:none;stroke:#e1812c;stroke-linecap:square;stroke-width:1.5;"/>
   </g>
   <g id="line2d_50"/>
   <g id="line2d_51">
    <path clip-path="url(#p02c7f32532)" d="M 66.88512 169.77466 
L 101.88288 169.77466 
" style="fill:none;stroke:#3274a1;stroke-linecap:square;stroke-width:1.5;"/>
   </g>
   <g id="line2d_52">
    <path clip-path="url(#p02c7f32532)" d="M 102.59712 197.856893 
L 137.59488 197.856893 
" style="fill:none;stroke:#e1812c;stroke-linecap:square;stroke-width:1.5;"/>
   </g>
   <g id="line2d_53">
    <path clip-path="url(#p02c7f32532)" d="M 156.16512 118.238445 
L 191.16288 118.238445 
" style="fill:none;stroke:#3274a1;stroke-linecap:square;stroke-width:1.5;"/>
   </g>
   <g id="line2d_54">
    <path clip-path="url(#p02c7f32532)" d="M 191.87712 185.035384 
L 226.87488 185.035384 
" style="fill:none;stroke:#e1812c;stroke-linecap:square;stroke-width:1.5;"/>
   </g>
   <g id="line2d_55">
    <path clip-path="url(#p02c7f32532)" d="M 245.44512 77.209613 
L 280.44288 77.209613 
" style="fill:none;stroke:#3274a1;stroke-linecap:square;stroke-width:1.5;"/>
   </g>
   <g id="line2d_56">
    <path clip-path="url(#p02c7f32532)" d="M 281.15712 164.771144 
L 316.15488 164.771144 
" style="fill:none;stroke:#e1812c;stroke-linecap:square;stroke-width:1.5;"/>
   </g>
   <g id="line2d_57">
    <path clip-path="url(#p02c7f32532)" d="M 334.72512 57.695901 
L 369.72288 57.695901 
" style="fill:none;stroke:#3274a1;stroke-linecap:square;stroke-width:1.5;"/>
   </g>
   <g id="line2d_58">
    <path clip-path="url(#p02c7f32532)" d="M 370.43712 134.937679 
L 405.43488 134.937679 
" style="fill:none;stroke:#e1812c;stroke-linecap:square;stroke-width:1.5;"/>
   </g>
   <g id="patch_13">
    <path d="M 57.6 307.584 
L 57.6 41.472 
" style="fill:none;stroke:#000000;stroke-linecap:square;stroke-linejoin:miter;stroke-width:0.8;"/>
   </g>
   <g id="patch_14">
    <path d="M 414.72 307.584 
L 414.72 41.472 
" style="fill:none;stroke:#000000;stroke-linecap:square;stroke-linejoin:miter;stroke-width:0.8;"/>
   </g>
   <g id="patch_15">
    <path d="M 57.6 307.584 
L 414.72 307.584 
" style="fill:none;stroke:#000000;stroke-linecap:square;stroke-linejoin:miter;stroke-width:0.8;"/>
   </g>
   <g id="patch_16">
    <path d="M 57.6 41.472 
L 414.72 41.472 
" style="fill:none;stroke:#000000;stroke-linecap:square;stroke-linejoin:miter;stroke-width:0.8;"/>
   </g>
   <g id="legend_1">
    <g id="patch_17">
     <path d="M 64.6 93.506375 
L 182.942188 93.506375 
Q 184.942188 93.506375 184.942188 91.506375 
L 184.942188 48.472 
Q 184.942188 46.472 182.942188 46.472 
L 64.6 46.472 
Q 62.6 46.472 62.6 48.472 
L 62.6 91.506375 
Q 62.6 93.506375 64.6 93.506375 
z
" style="fill:#ffffff;opacity:0.8;stroke:#cccccc;stroke-linejoin:miter;"/>
    </g>
    <g id="text_13">
     <!-- network -->
     <defs>
      <path d="M 4.203125 54.6875 
L 13.1875 54.6875 
L 24.421875 12.015625 
L 35.59375 54.6875 
L 46.1875 54.6875 
L 57.421875 12.015625 
L 68.609375 54.6875 
L 77.59375 54.6875 
L 63.28125 0 
L 52.6875 0 
L 40.921875 44.828125 
L 29.109375 0 
L 18.5 0 
z
" id="DejaVuSans-119"/>
      <path d="M 30.609375 48.390625 
Q 23.390625 48.390625 19.1875 42.75 
Q 14.984375 37.109375 14.984375 27.296875 
Q 14.984375 17.484375 19.15625 11.84375 
Q 23.34375 6.203125 30.609375 6.203125 
Q 37.796875 6.203125 41.984375 11.859375 
Q 46.1875 17.53125 46.1875 27.296875 
Q 46.1875 37.015625 41.984375 42.703125 
Q 37.796875 48.390625 30.609375 48.390625 
z
M 30.609375 56 
Q 42.328125 56 49.015625 48.375 
Q 55.71875 40.765625 55.71875 27.296875 
Q 55.71875 13.875 49.015625 6.21875 
Q 42.328125 -1.421875 30.609375 -1.421875 
Q 18.84375 -1.421875 12.171875 6.21875 
Q 5.515625 13.875 5.515625 27.296875 
Q 5.515625 40.765625 12.171875 48.375 
Q 18.84375 56 30.609375 56 
z
" id="DejaVuSans-111"/>
      <path d="M 9.078125 75.984375 
L 18.109375 75.984375 
L 18.109375 31.109375 
L 44.921875 54.6875 
L 56.390625 54.6875 
L 27.390625 29.109375 
L 57.625 0 
L 45.90625 0 
L 18.109375 26.703125 
L 18.109375 0 
L 9.078125 0 
z
" id="DejaVuSans-107"/>
     </defs>
     <g transform="translate(103.466406 58.070438)scale(0.1 -0.1)">
      <use xlink:href="#DejaVuSans-110"/>
      <use x="63.378906" xlink:href="#DejaVuSans-101"/>
      <use x="124.902344" xlink:href="#DejaVuSans-116"/>
      <use x="164.111328" xlink:href="#DejaVuSans-119"/>
      <use x="245.898438" xlink:href="#DejaVuSans-111"/>
      <use x="307.080078" xlink:href="#DejaVuSans-114"/>
      <use x="348.193359" xlink:href="#DejaVuSans-107"/>
     </g>
    </g>
    <g id="patch_18">
     <path d="M 66.6 72.748563 
L 86.6 72.748563 
L 86.6 65.748563 
L 66.6 65.748563 
z
" style="fill:#3274a1;stroke:#3f3f3f;stroke-linejoin:miter;stroke-width:0.75;"/>
    </g>
    <g id="text_14">
     <!-- complex network -->
     <defs>
      <path d="M 52 44.1875 
Q 55.375 50.25 60.0625 53.125 
Q 64.75 56 71.09375 56 
Q 79.640625 56 84.28125 50.015625 
Q 88.921875 44.046875 88.921875 33.015625 
L 88.921875 0 
L 79.890625 0 
L 79.890625 32.71875 
Q 79.890625 40.578125 77.09375 44.375 
Q 74.3125 48.1875 68.609375 48.1875 
Q 61.625 48.1875 57.5625 43.546875 
Q 53.515625 38.921875 53.515625 30.90625 
L 53.515625 0 
L 44.484375 0 
L 44.484375 32.71875 
Q 44.484375 40.625 41.703125 44.40625 
Q 38.921875 48.1875 33.109375 48.1875 
Q 26.21875 48.1875 22.15625 43.53125 
Q 18.109375 38.875 18.109375 30.90625 
L 18.109375 0 
L 9.078125 0 
L 9.078125 54.6875 
L 18.109375 54.6875 
L 18.109375 46.1875 
Q 21.1875 51.21875 25.484375 53.609375 
Q 29.78125 56 35.6875 56 
Q 41.65625 56 45.828125 52.96875 
Q 50 49.953125 52 44.1875 
z
" id="DejaVuSans-109"/>
      <path d="M 18.109375 8.203125 
L 18.109375 -20.796875 
L 9.078125 -20.796875 
L 9.078125 54.6875 
L 18.109375 54.6875 
L 18.109375 46.390625 
Q 20.953125 51.265625 25.265625 53.625 
Q 29.59375 56 35.59375 56 
Q 45.5625 56 51.78125 48.09375 
Q 58.015625 40.1875 58.015625 27.296875 
Q 58.015625 14.40625 51.78125 6.484375 
Q 45.5625 -1.421875 35.59375 -1.421875 
Q 29.59375 -1.421875 25.265625 0.953125 
Q 20.953125 3.328125 18.109375 8.203125 
z
M 48.6875 27.296875 
Q 48.6875 37.203125 44.609375 42.84375 
Q 40.53125 48.484375 33.40625 48.484375 
Q 26.265625 48.484375 22.1875 42.84375 
Q 18.109375 37.203125 18.109375 27.296875 
Q 18.109375 17.390625 22.1875 11.75 
Q 26.265625 6.109375 33.40625 6.109375 
Q 40.53125 6.109375 44.609375 11.75 
Q 48.6875 17.390625 48.6875 27.296875 
z
" id="DejaVuSans-112"/>
      <path d="M 54.890625 54.6875 
L 35.109375 28.078125 
L 55.90625 0 
L 45.3125 0 
L 29.390625 21.484375 
L 13.484375 0 
L 2.875 0 
L 24.125 28.609375 
L 4.6875 54.6875 
L 15.28125 54.6875 
L 29.78125 35.203125 
L 44.28125 54.6875 
z
" id="DejaVuSans-120"/>
     </defs>
     <g transform="translate(94.6 72.748563)scale(0.1 -0.1)">
      <use xlink:href="#DejaVuSans-99"/>
      <use x="54.980469" xlink:href="#DejaVuSans-111"/>
      <use x="116.162109" xlink:href="#DejaVuSans-109"/>
      <use x="213.574219" xlink:href="#DejaVuSans-112"/>
      <use x="277.050781" xlink:href="#DejaVuSans-108"/>
      <use x="304.833984" xlink:href="#DejaVuSans-101"/>
      <use x="366.341797" xlink:href="#DejaVuSans-120"/>
      <use x="425.521484" xlink:href="#DejaVuSans-32"/>
      <use x="457.308594" xlink:href="#DejaVuSans-110"/>
      <use x="520.6875" xlink:href="#DejaVuSans-101"/>
      <use x="582.210938" xlink:href="#DejaVuSans-116"/>
      <use x="621.419922" xlink:href="#DejaVuSans-119"/>
      <use x="703.207031" xlink:href="#DejaVuSans-111"/>
      <use x="764.388672" xlink:href="#DejaVuSans-114"/>
      <use x="805.501953" xlink:href="#DejaVuSans-107"/>
     </g>
    </g>
    <g id="patch_19">
     <path d="M 66.6 87.426688 
L 86.6 87.426688 
L 86.6 80.426688 
L 66.6 80.426688 
z
" style="fill:#e1812c;stroke:#3f3f3f;stroke-linejoin:miter;stroke-width:0.75;"/>
    </g>
    <g id="text_15">
     <!-- real network -->
     <g transform="translate(94.6 87.426688)scale(0.1 -0.1)">
      <use xlink:href="#DejaVuSans-114"/>
      <use x="41.082031" xlink:href="#DejaVuSans-101"/>
      <use x="102.605469" xlink:href="#DejaVuSans-97"/>
      <use x="163.884766" xlink:href="#DejaVuSans-108"/>
      <use x="191.667969" xlink:href="#DejaVuSans-32"/>
      <use x="223.455078" xlink:href="#DejaVuSans-110"/>
      <use x="286.833984" xlink:href="#DejaVuSans-101"/>
      <use x="348.357422" xlink:href="#DejaVuSans-116"/>
      <use x="387.566406" xlink:href="#DejaVuSans-119"/>
      <use x="469.353516" xlink:href="#DejaVuSans-111"/>
      <use x="530.535156" xlink:href="#DejaVuSans-114"/>
      <use x="571.648438" xlink:href="#DejaVuSans-107"/>
     </g>
    </g>
   </g>
  </g>
 </g>
 <defs>
  <clipPath id="p02c7f32532">
   <rect height="266.112" width="357.12" x="57.6" y="41.472"/>
  </clipPath>
 </defs>
</svg>
